<svg xmlns="http://www.w3.org/2000/svg" width="170" height="36" fill="none"><path fill="#333" d="M142.936 17.24h4.2v6.96c-.96.688-2.064 1.216-3.312 1.584-1.248.368-2.496.552-3.744.552-1.76 0-3.344-.368-4.752-1.104-1.408-.752-2.512-1.792-3.312-3.12-.8-1.328-1.2-2.832-1.2-4.512 0-1.68.4-3.184 1.2-4.512.8-1.328 1.912-2.36 3.336-3.096 1.424-.752 3.032-1.128 4.824-1.128 1.568 0 2.976.264 4.224.792 1.248.528 2.288 1.288 3.12 2.28l-3.024 2.736c-1.136-1.248-2.496-1.872-4.08-1.872-1.44 0-2.6.44-3.48 1.32-.88.864-1.32 2.024-1.32 3.48 0 .928.2 1.76.6 2.496.4.72.96 1.288 1.68 1.704.72.4 1.544.6 2.472.6.912 0 1.768-.184 2.568-.552V17.24Zm16.165 9.096c-1.776 0-3.376-.376-4.8-1.128-1.408-.752-2.52-1.792-3.336-3.12-.8-1.328-1.2-2.824-1.2-4.488 0-1.664.4-3.16 1.2-4.488.816-1.328 1.928-2.368 3.336-3.12 1.424-.752 3.024-1.128 4.8-1.128 1.776 0 3.368.376 4.776 1.128 1.424.752 2.536 1.792 3.336 3.12.816 1.328 1.224 2.824 1.224 4.488 0 1.664-.408 3.16-1.224 4.488-.8 1.328-1.912 2.368-3.336 3.12-1.408.752-3 1.128-4.776 1.128Zm0-3.936c.848 0 1.616-.2 2.304-.6.688-.4 1.232-.96 1.632-1.68.4-.736.6-1.576.6-2.52s-.2-1.776-.6-2.496c-.4-.736-.944-1.304-1.632-1.704-.688-.4-1.456-.6-2.304-.6-.848 0-1.616.2-2.304.6-.688.4-1.232.968-1.632 1.704-.4.72-.6 1.552-.6 2.496s.2 1.784.6 2.52c.4.72.944 1.28 1.632 1.68.688.4 1.456.6 2.304.6Z"/><path fill="#7859CF" fill-rule="evenodd" d="M124 18c0 2.8737-.599 5.5901-1.663 8H109c2.463-3.7719 5-8.3394 5-13 0-5.99764-4.062-11.04665-9.584-12.5466C105.568.1567 106.768 0 108 0c8.837 0 16 8.05888 16 18Zm-14-5c0-4.97056-4.029-9-9-9-6.6507 0-9 8.5071-9 14 0 9.9411 7.1634 18 16 18 4.739 0 8.996-2.3175 11.926-6H101c.352-.4486.72-.9109 1.099-1.3858C105.616 24.2012 110 18.6997 110 13Z" clip-rule="evenodd"/><path fill="#333" d="M2.65063 9.2h7.94397c1.84 0 3.472.344 4.896 1.032 1.424.688 2.528 1.664 3.312 2.928.784 1.264 1.176 2.744 1.176 4.44 0 1.696-.392 3.176-1.176 4.44-.784 1.264-1.888 2.24-3.312 2.928-1.424.688-3.056 1.032-4.896 1.032H2.65063V9.2Zm7.75197 13.008c1.44 0 2.592-.408 3.456-1.224.88-.816 1.32-1.944 1.32-3.384s-.44-2.568-1.32-3.384c-.864-.816-2.016-1.224-3.456-1.224H7.40263v9.216h2.99997Zm19.9002-.672h-2.592V26h-4.752V9.2h7.68c1.52 0 2.84.256 3.96.768 1.12.496 1.984 1.216 2.592 2.16.608.928.912 2.024.912 3.288 0 1.216-.288 2.28-.864 3.192-.56.896-1.368 1.6-2.424 2.112l3.624 5.28h-5.088l-3.048-4.464Zm3-6.12c0-.784-.248-1.392-.744-1.824-.496-.432-1.232-.648-2.208-.648h-2.64v4.92h2.64c.976 0 1.712-.208 2.208-.624.496-.432.744-1.04.744-1.824ZM41.2044 9.2h4.752V26h-4.752V9.2Zm24.5968 0V26h-3.912l-7.416-8.952V26h-4.656V9.2h3.912l7.416 8.952V9.2h4.656Zm10.3119 10.704-1.776 1.896V26h-4.704V9.2h4.704v6.984l6.504-6.984h5.232l-6.864 7.44 7.224 9.36h-5.52l-4.8-6.096Z"/></svg>