<svg xmlns="http://www.w3.org/2000/svg" width="38" height="50" fill="none"><ellipse cx="19" cy="48.5" fill="#7859CF" fill-opacity=".25" rx="8" ry="1.5"/><path fill="#7859CF" d="M38 20c0 15.0457-19 24-19 24S0 35.0457 0 20C0 8.9543 8.50659 0 19 0c10.4934 0 19 8.9543 19 20Z"/><path fill="#fff" fill-rule="evenodd" d="M19 36c8.2843 0 15-7.1635 15-16 0-8.8365-6.7157-16-15-16S4 11.1635 4 20c0 8.8365 6.7157 16 15 16Zm9.8566-10.6667c.732-1.6066 1.1435-3.4175 1.1435-5.3333 0-6.6274-4.9249-12-11-12-.8472 0-1.672.10448-2.4642.30226 3.7969.99997 6.5892 4.36594 6.5892 8.36444 0 3.1071-1.7445 6.1521-3.4375 8.6666h9.169ZM14.1875 10.6665c3.4172 0 6.1875 2.6863 6.1875 6 0 3.7998-3.0142 7.4675-5.4321 10.4095-.2602.3166-.5135.6248-.7554.9238H27.199c-2.0141 2.455-4.9412 4-8.199 4-6.0751 0-11-5.3725-11-12 0-3.6619 1.61517-9.3333 6.1875-9.3333Z" clip-rule="evenodd"/></svg>