<svg xmlns="http://www.w3.org/2000/svg" width="20" height="16" fill="none"><path fill="#fff" fill-rule="evenodd" d="m13.6738 13.5219.0031-.0219h1.3469l-.0301.2105C14.8061 15.0242 13.6809 16 12.3539 16H3.64612c-1.32707 0-2.45219-.9758-2.63986-2.2895L.19048 8 0 6.66667h4.55556l-.22338-2.68049C4.15336 1.84036 5.84674 0 8 0c1.81376 0 3.3012 1.30578 3.6183 3h-1.371C9.95698 2.04197 9.06703 1.33333 8 1.33333c-1.37321 0-2.45313 1.17366-2.33909 2.54213l.2326 2.79121H9.5V8H6.05787l.22222 2.6667h3.43982L9.7338 10.5h1.338l-.0139.1667H12.5V12h-1.5532l-.2223 2.6667h1.6294c.6635 0 1.2261-.4879 1.3199-1.1448ZM4.71991 8H1.53735l.38095 2.6667h3.02383L4.71991 8Zm1.89351 6.6667L6.3912 12h3.2176l-.22222 2.6667H6.61342ZM5.05324 12l.22223 2.6667H3.64612c-.66353 0-1.22609-.4879-1.31993-1.1448L2.10877 12h2.94447ZM15.8 10V7.2H13V5.8h2.8V3h1.4v2.8H20v1.4h-2.8V10h-1.4Z" clip-rule="evenodd"/></svg>