<svg xmlns="http://www.w3.org/2000/svg" width="13" height="16" fill="none"><path fill="#7859CF" fill-rule="evenodd" d="M1.47771 1.49035C.40704 2.09016-.17301 3.23613.04576 4.31941l.35831 1.77426C1.3302 9.21701 2.90461 11.863 5.22921 14.2029l1.40441 1.1882c.85747.7255 2.17031.8111 3.24098.2113l2.2297-1.2491c.8723-.4887 1.1619-1.5347.6255-2.2592l-1.9347-2.61314c-.5158-.69676-1.58805-.81147-2.36563-.25309l-1.37564.98783C5.82614 9.33632 5.0461 8.02537 4.87507 6.55403l1.5695-.66205c.88715-.37422 1.32088-1.33259.95693-2.11443L6.03652.84527C5.65806.03226 4.57968-.2474 3.7074.24127L1.47771 1.49034ZM1.2824 4.01819c-.11934-.59094.19708-1.21608.78114-1.54327l2.22969-1.2491c.21807-.12216.48766-.05225.58228.15101l1.36498 2.93228c.09098.19546-.01745.43505-.23923.5286L3.57088 5.8629l.01604.41581c.08202 2.12633 1.21177 4.02499 3.06856 5.15709l.3631.2214 2.1302-1.5297c.19439-.13958.46245-.1109.59141.0633l1.93461 2.6131c.1341.1812.0617.4427-.1563.5648l-2.22973 1.2491c-.58406.3272-1.30023.2805-1.76798-.1152l-1.40442-1.1882C4.3893 11.6193 2.29008 8.09128 1.64071 5.79245L1.2824 4.01819Z" clip-rule="evenodd"/></svg>