<svg xmlns="http://www.w3.org/2000/svg" width="50" height="56" fill="none"><path fill="#F0EBFF" fill-rule="evenodd" d="M23 4h8v3h-3v3.0213c3.8152.1633 7.3896 1.2559 10.5027 3.0573 1.8513-1.931 6.2524.1673 4.7608 3.6579a29.8708 29.8708 0 0 0-.0979-.0972C47.3853 20.8089 50 26.5991 50 33c0 12.7025-10.2975 23-23 23S4 45.7025 4 33c0-6.6703 2.83949-12.6774 7.3757-16.8785-.2169.2007-.43.4057-.6392.6149-2.02931-3.0289 2.5834-6.1547 4.761-3.658 3.113-1.8013 6.6874-2.8938 10.5025-3.0571V7h-3V4Z" clip-rule="evenodd"/><path fill="#7859CF" fill-rule="evenodd" d="M26 1h-6v1h6V1Zm-2 2h3V0h-8v3h3v3.02135c-3.4537.14775-6.7102 1.05713-9.6056 2.56447l-.14-.16086c-1.5381-1.76806-3.85919-1.44241-5.29956-.40101-.73967.53479-1.35231 1.31418-1.6028 2.25355-.25766.9663-.10953 2.0256.5537 3.0155l.12291.1835C2.28444 17.5676 0 23.017 0 29c0 12.7025 10.2975 23 23 23s23-10.2975 23-23c0-5.9599-2.2669-11.3904-5.9855-15.4762l.1685-.3943c.4624-1.0821.4918-2.1274.1688-3.0425-.3179-.9008-.95-1.59927-1.6853-2.06068-1.4074-.88313-3.5339-1.05455-4.8895.36422l-.1815.18999C30.7025 7.07636 27.4497 6.16892 24 6.02135V3Zm-1 4c-3.8594 0-7.4867.99379-10.64 2.73944l-.36.20788a22.00112 22.00112 0 0 0-3.93076 2.89478C3.72198 16.8612 1 22.6127 1 29c0 12.1503 9.8497 22 22 22s22-9.8497 22-22c0-6.0751-2.4624-11.5752-6.4437-15.5564a22.25147 22.25147 0 0 0-.3776-.3687A21.99916 21.99916 0 0 0 34 9.94741l-.3643-.21031C30.4835 7.99291 26.8577 7 23 7ZM11.4975 9.07845c-1.4866.86022-2.86806 1.88205-4.12022 3.04155a22.96015 22.96015 0 0 0-.64076.6164c-.21841-.326-.35988-.6531-.43573-.9742-.54636-2.31295 2.31198-4.31416 4.34581-3.33888.3073.14736.5958.36267.8509.65513Zm23.0052.00011c1.5645.9053 3.0125 1.98964 4.3159 3.22494.1502.1423.2985.2867.4449.433.1665-.3897.2595-.762.2909-1.1133.2088-2.33601-2.3103-3.74258-4.1037-3.14106-.3529.11834-.6776.31441-.948.59642ZM23 31c1.1046 0 2-.8954 2-2 0-.7951-.464-1.4818-1.1359-1.8042l-.914-.1952C21.8686 27.0271 21 27.9121 21 29c0 1.1046.8954 2 2 2Zm-.6362-4.9324-1.3462-4.936-.0398-.1461.0479-.1436 1.5-4.5.4743-1.423.4743 1.423 1.5 4.5.0479.1436-.0398.1461-1.3462 4.936c.1295.028.2559.0643.3786.1084l7.5494-13.4211.8716.4902-7.5497 13.4218C25.5656 27.2169 26 28.0577 26 29c0 1.6569-1.3431 3-3 3s-3-1.3431-3-3c0-1.4386 1.0125-2.6406 2.3638-2.9324Zm-.3416-5.0531L23 24.5997l.9778-3.5852L23 18.0811l-.9778 2.9334Z" clip-rule="evenodd"/></svg>